<?xml version="1.0" standalone="no"?>
<!DOCTYPE svg PUBLIC "-//W3C//DTD SVG 20010904//EN"
 "http://www.w3.org/TR/2001/REC-SVG-20010904/DTD/svg10.dtd">
<svg version="1.0" xmlns="http://www.w3.org/2000/svg"
 width="512.000000pt" height="512.000000pt" viewBox="0 0 512.000000 512.000000"
 preserveAspectRatio="xMidYMid meet">

<g transform="translate(0.000000,512.000000) scale(0.100000,-0.100000)"
fill="#000000" stroke="none">
<path d="M1048 4896 c-89 -24 -168 -107 -187 -197 -16 -75 -15 -708 2 -713 6
-3 42 -7 80 -10 l67 -5 0 322 c0 315 1 324 23 367 16 33 34 51 67 68 l44 22
1736 0 1736 0 44 -22 c33 -17 51 -35 68 -68 l22 -44 0 -1736 0 -1736 -22 -44
c-17 -33 -35 -51 -68 -67 l-44 -23 -1018 0 -1018 0 0 -80 0 -80 1063 2 1062 3
47 23 c54 27 109 84 135 139 17 36 18 137 18 1863 l0 1825 -23 47 c-27 54 -87
112 -141 136 -33 16 -186 17 -1841 19 -1430 1 -1815 -1 -1852 -11z"/>
<path d="M1137 4622 c-15 -17 -17 -55 -17 -346 l0 -326 27 -11 c21 -8 39 -5
87 14 92 37 169 50 301 50 171 -1 347 -34 474 -89 29 -13 57 -24 62 -24 5 0 9
144 9 320 l0 320 375 0 375 0 0 -370 0 -370 -290 0 c-187 0 -290 -4 -290 -10
0 -5 4 -10 8 -10 18 0 164 -157 213 -227 65 -94 131 -234 164 -348 28 -97 55
-238 55 -289 0 -68 6 -75 74 -78 l61 -3 3 -372 2 -373 -123 0 -124 0 -56 -202
c-92 -330 -148 -589 -128 -596 36 -12 106 -72 133 -113 l31 -49 1022 0 c977 0
1023 1 1038 18 16 17 17 152 17 1744 0 1658 -1 1726 -18 1741 -17 16 -152 17
-1744 17 -1658 0 -1726 -1 -1741 -18z m3393 -462 l0 -370 -370 0 -370 0 0 370
0 370 370 0 370 0 0 -370z m-850 -855 l0 -375 -372 2 -373 3 -3 373 -2 372
375 0 375 0 0 -375z m850 -850 l0 -375 -370 0 -370 0 0 375 0 375 370 0 370 0
0 -375z m-850 -855 l0 -370 -375 0 -375 0 0 370 0 370 375 0 375 0 0 -370z"/>
<path d="M1370 3885 c-36 -8 -91 -28 -123 -44 -56 -29 -59 -29 -100 -15 -64
23 -173 44 -226 44 -96 0 -94 -38 10 -179 l81 -111 -37 -62 c-20 -35 -62 -106
-94 -158 -32 -52 -111 -197 -176 -321 -79 -153 -144 -263 -201 -340 -94 -127
-133 -199 -141 -256 -4 -33 3 -51 52 -133 31 -52 71 -110 88 -128 67 -70 168
-113 268 -113 142 -1 217 66 253 225 31 131 50 149 184 176 87 18 184 46 257
76 24 9 29 17 -90 -131 -49 -60 -193 -213 -320 -340 -127 -126 -248 -256 -269
-288 -72 -111 -112 -247 -118 -410 l-3 -77 810 0 811 0 12 84 c16 113 87 393
166 661 35 121 72 252 81 290 65 279 58 609 -17 845 -61 192 -145 328 -280
456 -132 123 -280 197 -483 239 -112 24 -313 29 -395 10z"/>
<path d="M544 1171 c-23 -10 -52 -34 -65 -52 -23 -32 -24 -44 -27 -196 l-3
-163 1010 0 1011 0 0 148 c0 136 -2 153 -23 192 -16 30 -37 51 -67 67 l-43 23
-876 0 c-833 0 -878 -1 -917 -19z"/>
<path d="M433 650 c-83 -17 -152 -70 -189 -145 -35 -72 -46 -210 -20 -250 l16
-25 1211 0 c815 0 1217 3 1230 10 17 10 19 22 19 108 0 116 -22 175 -90 235
-85 77 2 72 -1125 74 -556 0 -1029 -3 -1052 -7z"/>
</g>
</svg>
