<?xml version="1.0" standalone="no"?>
<!DOCTYPE svg PUBLIC "-//W3C//DTD SVG 20010904//EN"
 "http://www.w3.org/TR/2001/REC-SVG-20010904/DTD/svg10.dtd">
<svg version="1.0" xmlns="http://www.w3.org/2000/svg"
 width="512.000000pt" height="512.000000pt" viewBox="0 0 512.000000 512.000000"
 preserveAspectRatio="xMidYMid meet">

<g transform="translate(0.000000,512.000000) scale(0.100000,-0.100000)"
fill="#000000" stroke="none">
<path d="M1283 5105 c-42 -18 -88 -83 -103 -145 -21 -87 1 -153 112 -328 187
-299 190 -334 31 -490 -92 -90 -95 -95 -90 -130 4 -36 3 -38 -64 -85 -65 -46
-70 -47 -91 -33 -40 29 -68 20 -124 -38 -40 -41 -57 -68 -69 -111 -30 -102 -6
-169 133 -378 75 -113 93 -147 106 -206 20 -88 20 -121 0 -149 -20 -28 -63
-29 -98 -1 -54 43 -106 182 -106 285 0 53 -4 67 -26 93 -75 90 -232 -15 -334
-222 -99 -201 -71 -285 140 -422 104 -68 135 -97 127 -118 -3 -8 -32 -29 -64
-47 -75 -42 -173 -143 -207 -211 -38 -79 -59 -189 -52 -273 9 -99 23 -150 68
-244 33 -70 57 -102 156 -205 128 -132 157 -172 167 -229 9 -48 -21 -114 -104
-227 -143 -197 -162 -322 -75 -500 152 -309 720 -566 1464 -663 224 -29 650
-31 845 -4 373 52 659 171 832 348 117 119 158 221 119 296 -15 29 -86 98
-149 146 -46 35 -36 46 43 46 165 1 291 85 335 225 16 52 17 80 11 249 -10
278 11 364 115 482 72 82 133 202 154 302 19 94 20 310 1 355 -17 42 -67 84
-114 97 -40 10 -98 0 -137 -26 -23 -15 -65 -83 -65 -105 0 -28 -50 -121 -62
-117 -9 3 -15 43 -20 129 -12 234 -83 377 -355 717 -156 196 -188 252 -188
337 0 76 16 108 122 250 185 246 231 414 157 574 -58 128 -173 185 -262 131
-37 -23 -71 -88 -72 -136 -1 -110 -19 -121 -222 -130 -175 -7 -255 -27 -317
-81 -106 -90 -109 -214 -11 -473 25 -65 33 -107 37 -176 6 -102 -5 -149 -42
-184 -45 -42 -176 -21 -211 35 -11 17 -8 34 17 110 27 78 30 101 27 175 -3 70
-10 97 -36 155 -36 76 -83 140 -146 198 -58 54 -182 135 -224 147 -85 23 -157
2 -193 -57 -20 -32 -21 -43 -15 -133 6 -88 5 -104 -13 -139 -23 -44 -71 -85
-119 -102 -92 -32 -187 130 -152 258 11 39 27 61 83 113 233 219 242 233 242
385 0 94 -2 104 -33 161 -66 122 -168 201 -330 258 -148 51 -230 99 -338 197
-88 80 -140 95 -211 64z m695 -2163 c33 -46 72 -134 72 -163 0 -30 -38 -75
-76 -89 -52 -20 -94 29 -113 135 -21 110 -10 186 32 232 l20 23 22 -54 c12
-29 31 -67 43 -84z m922 -55 c57 -19 65 -25 62 -45 -5 -37 20 -64 111 -120
197 -120 337 -312 417 -573 32 -104 43 -119 87 -123 26 -3 29 -7 40 -72 16
-91 16 -104 0 -104 -8 0 -24 -11 -36 -24 -21 -23 -22 -28 -16 -157 8 -147 -1
-221 -36 -314 -29 -77 -122 -173 -192 -198 -26 -9 -69 -24 -95 -33 -30 -11
-65 -35 -98 -69 -52 -53 -65 -80 -109 -238 l-16 -58 -42 3 -42 3 -12 70 c-21
113 -66 157 -166 163 -73 5 -132 -18 -162 -64 -9 -15 -27 -77 -39 -138 l-22
-111 -71 -3 -71 -3 -21 113 c-29 156 -64 198 -170 206 -110 8 -179 -48 -196
-158 -12 -81 -12 -81 -58 -78 l-41 3 -31 107 c-50 168 -103 229 -236 268 -139
42 -233 143 -265 286 -14 64 -16 107 -11 238 15 409 118 708 317 918 l69 73
18 -25 c84 -118 216 -134 339 -41 66 50 98 114 97 197 l0 64 36 7 c48 10 369
10 449 0 62 -8 64 -8 90 22 32 36 39 37 122 8z"/>
<path d="M1855 2237 c-62 -21 -103 -45 -151 -89 -166 -153 -179 -401 -29 -552
183 -182 501 -115 618 132 29 61 32 76 32 162 0 82 -4 103 -27 152 -35 76 -95
138 -165 173 -48 24 -73 29 -148 32 -56 2 -105 -2 -130 -10z"/>
<path d="M2816 2226 c-85 -36 -143 -91 -182 -173 -94 -196 -5 -428 204 -526
60 -29 77 -32 157 -32 76 0 99 4 147 27 115 54 188 149 210 275 10 60 9 80 -5
139 -32 127 -111 225 -226 281 -46 22 -73 27 -151 30 -83 3 -102 1 -154 -21z"/>
<path d="M2385 1643 c-46 -24 -84 -62 -126 -127 -33 -49 -39 -68 -39 -110 0
-66 32 -123 85 -153 35 -20 54 -23 158 -23 128 0 152 7 199 57 69 73 63 156
-20 265 -55 72 -113 108 -176 108 -28 -1 -64 -8 -81 -17z"/>
<path d="M3125 5073 c-54 -15 -95 -66 -95 -121 0 -16 -19 -59 -42 -98 -63
-103 -87 -170 -88 -237 0 -71 20 -120 68 -170 144 -149 347 -96 407 105 66
223 18 430 -115 498 -41 21 -103 32 -135 23z"/>
<path d="M781 4793 c-58 -20 -130 -93 -163 -164 -37 -77 -62 -207 -56 -291 7
-94 43 -153 118 -191 47 -25 63 -28 114 -24 77 7 159 49 197 102 50 70 57 161
23 310 -8 35 -11 82 -7 115 7 74 -13 115 -70 141 -50 22 -96 23 -156 2z m69
-195 c1 -29 7 -80 15 -113 8 -33 15 -81 15 -107 0 -39 -4 -50 -31 -72 -29 -25
-70 -33 -103 -20 -59 23 -25 251 49 329 45 48 55 45 55 -17z"/>
<path d="M4333 3449 c-45 -13 -79 -58 -87 -114 -4 -30 -21 -71 -44 -109 -110
-174 -109 -306 3 -404 142 -125 316 -73 379 112 57 167 39 344 -44 439 -60 67
-139 97 -207 76z"/>
</g>
</svg>
